<svg xmlns="http://www.w3.org/2000/svg" xmlns:xlink="http://www.w3.org/1999/xlink" width="1320" zoomAndPan="magnify" viewBox="0 0 990 404.99999" height="540" preserveAspectRatio="xMidYMid meet" version="1.0"><defs><g/></defs><g fill="#ffffff" fill-opacity="1"><g transform="translate(23.223951, 321.958805)"><g><path d="M -17.46875 0 L 40.1875 -250.125 L 90.28125 -250.125 L 42.515625 -42.515625 L 94.0625 -42.515625 L 84.15625 0 Z M -17.46875 0 "/></g></g></g><g fill="#ffffff" fill-opacity="1"><g transform="translate(138.821214, 321.958805)"><g><path d="M -24.15625 0 L 57.65625 -250.125 L 142.390625 -250.125 L 108.625 0 L 61.15625 0 L 66.984375 -40.46875 L 36.703125 -40.46875 L 24.46875 0 Z M 49.796875 -80.375 L 72.515625 -80.375 L 90.5625 -207.609375 L 88.234375 -207.609375 Z M 49.796875 -80.375 "/></g></g></g><g fill="#ffffff" fill-opacity="1"><g transform="translate(280.042062, 321.958805)"><g><path d="M 40.1875 2.328125 C 19.613281 2.328125 5.6875 -3.492188 -1.59375 -15.140625 C -8.875 -26.785156 -9.894531 -44.0625 -4.65625 -66.96875 L 37.5625 -250.125 L 86.203125 -250.125 L 44.265625 -69.015625 C 42.515625 -61.054688 41.878906 -54.84375 42.359375 -50.375 C 42.847656 -45.90625 45.617188 -43.671875 50.671875 -43.671875 C 55.722656 -43.671875 59.554688 -45.851562 62.171875 -50.21875 C 64.796875 -54.59375 66.976562 -60.859375 68.71875 -69.015625 L 110.65625 -250.125 L 159.28125 -250.125 L 117.0625 -66.96875 C 111.820312 -44.0625 102.84375 -26.785156 90.125 -15.140625 C 77.414062 -3.492188 60.769531 2.328125 40.1875 2.328125 Z M 40.1875 2.328125 "/></g></g></g><g fill="#ffffff" fill-opacity="1"><g transform="translate(418.059929, 321.958805)"><g><path d="M -17.46875 0 L 40.1875 -250.125 L 91.734375 -250.125 L 87.078125 -130.453125 L 114.734375 -250.125 L 163.078125 -250.125 L 105.421875 0 L 56.5 0 L 60.28125 -125.203125 L 31.453125 0 Z M -17.46875 0 "/></g></g></g><g fill="#ffffff" fill-opacity="1"><g transform="translate(563.066074, 321.958805)"><g><path d="M 40.1875 -250.125 L 109.203125 -250.125 C 127.054688 -250.125 139.332031 -245.171875 146.03125 -235.265625 C 152.726562 -225.367188 153.941406 -210.71875 149.671875 -191.3125 L 123.171875 -74.25 C 117.546875 -49.59375 108.957031 -31.050781 97.40625 -18.625 C 85.851562 -6.207031 69.984375 0 49.796875 0 L -17.46875 0 Z M 51.84375 -44.265625 C 60.957031 -44.265625 66.582031 -48.726562 68.71875 -57.65625 L 98.421875 -186.65625 C 99.785156 -192.28125 100.320312 -196.5 100.03125 -199.3125 C 99.738281 -202.132812 98.570312 -204.03125 96.53125 -205 C 94.5 -205.96875 91.054688 -206.453125 86.203125 -206.453125 L 80.671875 -206.453125 L 43.09375 -44.265625 Z M 51.84375 -44.265625 "/></g></g></g><g fill="#ffffff" fill-opacity="1"><g transform="translate(706.616364, 321.958805)"><g><path d="M 40.1875 -250.125 L 117.0625 -250.125 C 129.289062 -250.125 138.125 -247.359375 143.5625 -241.828125 C 149 -236.296875 151.71875 -228.53125 151.71875 -218.53125 C 151.71875 -208.539062 149.96875 -195.78125 146.46875 -180.25 C 143.164062 -166.070312 138.75 -155.003906 133.21875 -147.046875 C 127.6875 -139.085938 119.972656 -133.554688 110.078125 -130.453125 C 117.253906 -128.898438 121.863281 -125.113281 123.90625 -119.09375 C 125.945312 -113.070312 125.800781 -104.921875 123.46875 -94.640625 L 101.046875 0 L 52.125 0 L 74.546875 -97.84375 C 76.296875 -104.832031 76.003906 -109.296875 73.671875 -111.234375 C 71.347656 -113.171875 66.59375 -114.140625 59.40625 -114.140625 L 33.203125 0 L -17.46875 0 Z M 81.828125 -157.53125 C 88.816406 -157.53125 94.054688 -165.101562 97.546875 -180.25 C 99.109375 -186.84375 99.9375 -191.789062 100.03125 -195.09375 C 100.125 -198.394531 99.539062 -200.675781 98.28125 -201.9375 C 97.019531 -203.195312 94.929688 -203.828125 92.015625 -203.828125 L 80.375 -203.828125 L 69.890625 -157.53125 Z M 81.828125 -157.53125 "/></g></g></g><g fill="#ffffff" fill-opacity="1"><g transform="translate(845.507815, 321.958805)"><g><path d="M -19.796875 0 L 37.859375 -250.125 L 86.203125 -250.125 L 28.546875 0 Z M -19.796875 0 "/></g></g></g><g fill="#ffffff" fill-opacity="1"><g transform="translate(911.604947, 321.958805)"><g><path d="M 2.90625 0 L 12.8125 -42.515625 L 63.765625 -42.515625 L 53.875 0 Z M 2.90625 0 "/></g></g></g></svg>